# xmcd
#
# Track frame offsets: 
#        150
#        16791
#        32074
#        50705
#        67213
#        83306
#        98727
#        114540
#        131623
#        147655
#        163186
#        176171
#        192274
#        208822
#        227388
#        243316
#        261457
#        274118
#        287507
#        304385
#        321723
#        334285
#
# Disc length: 4660 seconds
#
# Revision: 0
# Processed by: cddbd v1.5.2PL0 Copyright (c) Steve Scherf et al.
# Submitted via: ExactAudioCopy v1.1
#
DISCID=54123216
DTITLE=Various Artist - De Foute CD 2019 - CD 2
DYEAR=2019
DGENRE=Pop
TTITLE0=2 Unlimited - Jump For Joy
TTITLE1=Vengaboys - Boom, Boom, Boom, Boom!!
TTITLE2=Captain Jack - Captain Jack
TTITLE3=K3 - 10.000 Luchtballonnen
TTITLE4=Luc Steeno - Hij Speelde Accordeon
TTITLE5=Alana Dante - Take Me For A Ride
TTITLE6=Gala - Freed From Desire
TTITLE7=Def Dames Dope - It's Ok, All Right
TTITLE8=Kabouter Plop - Kabouterdans
TTITLE9=Isabelle A - Hé Lekker Beest
TTITLE10=Paul Severs - Zeg 'ns Meisje
TTITLE11=O-Zone - Dragostea Din Tei
TTITLE12=Psy - Gangnam Style
TTITLE13=Sam Gooris - Laat Het Gras Maar Groeien
TTITLE14=The Dinky Toys - I Can't Keep My Hands Off You
TTITLE15=Dr. Alban - Sing Hallelujah!
TTITLE16=Bellini - Samba De Janeiro
TTITLE17=Belle Perez - Enamorada
TTITLE18=Backstreet Boys - Everybody (Backstreet's Back)
TTITLE19=Ultimate Kaos - Casanova
TTITLE20=Michel Teló - Ai Se Eu Te Pego
TTITLE21=Guus Meeuwis and Vagant - Het Is Een Nacht (Levensecht)
EXTD=
EXTT0=
EXTT1=
EXTT2=
EXTT3=
EXTT4=
EXTT5=
EXTT6=
EXTT7=
EXTT8=
EXTT9=
EXTT10=
EXTT11=
EXTT12=
EXTT13=
EXTT14=
EXTT15=
EXTT16=
EXTT17=
EXTT18=
EXTT19=
EXTT20=
EXTT21=
PLAYORDER=
